<svg width="12" height="20" viewBox="0 0 12 20" fill="none" xmlns="http://www.w3.org/2000/svg">
<path d="M11.0603 19.5462C11.3415 19.2649 11.4995 18.8834 11.4995 18.4857C11.4995 18.0879 11.3415 17.7065 11.0603 17.4252L3.63533 10.0002L11.0603 2.57518C11.3336 2.29228 11.4848 1.91338 11.4813 1.52008C11.4779 1.12679 11.3202 0.750567 11.0421 0.472455C10.7639 0.194343 10.3877 0.036591 9.99443 0.0331734C9.60113 0.0297558 9.22223 0.180947 8.93933 0.454184L0.453827 8.93968C0.172621 9.22097 0.014648 9.60243 0.014648 10.0002C0.014648 10.3979 0.172621 10.7794 0.453828 11.0607L8.93933 19.5462C9.22062 19.8274 9.60208 19.9854 9.99983 19.9854C10.3976 19.9854 10.779 19.8274 11.0603 19.5462V19.5462Z" fill="white"/>
</svg>
